# xmcd
#
# Track frame offsets: 
#        150
#        18539
#        45930
#        79608
#        106486
#        119213
#        150329
#
# Disc length: 2209 seconds
#
# Revision: 0
# Processed by: cddbd v1.5.2PL0 Copyright (c) Steve Scherf et al.
# Submitted via: ExactAudioCopy v1.0b1
#
DISCID=4c089f07
DTITLE=Big Mama Thornton - The Complete Vanguard Recordin CD1
DYEAR=2000
DGENRE=Blues
TTITLE0=Little Red Rooster
TTITLE1=Ball and Chain
TTITLE2=Jail
TTITLE3=Hound Dog
TTITLE4=Rock Me Baby
TTITLE5=Sheriff O. E. and Me
TTITLE6=Oh Happy Day
EXTD=
EXTT0=
EXTT1=
EXTT2=
EXTT3=
EXTT4=
EXTT5=
EXTT6=
PLAYORDER=
